HIERARCHY
ROOT pelvis
{
  OFFSET 0 100 0
  CHANNELS 6 Xposition Yposition Zposition Zrotation Xrotation Yrotation
  JOINT pelvis_right_femur
  {
    OFFSET -10.78128 -3.44521 -0.5502486
    CHANNELS 3 Zrotation Xrotation Yrotation
    JOINT right_femur_tibia
    {
      OFFSET -0.8047443 -44.0398 -0.1307829
      CHANNELS 3 Zrotation Xrotation Yrotation
      JOINT right_tibia_foot
      {
        OFFSET 3.006224 -47.83518 -5
        CHANNELS 3 Zrotation Xrotation Yrotation
        End Site
        {
          OFFSET 0 -5 15
        }
      }
    }
  }
  JOINT pelvis_left_femur
  {
    OFFSET 10.78128 -3.44521 -0.5502486
    CHANNELS 3 Zrotation Xrotation Yrotation
    JOINT left_femur_tibia
    {
      OFFSET 0.8047443 -44.0398 -0.1307829
      CHANNELS 3 Zrotation Xrotation Yrotation
      JOINT left_tibia_foot
      {
        OFFSET -4.370144 -48.10324 -4.275266
        CHANNELS 3 Zrotation Xrotation Yrotation
        End Site
        {
          OFFSET 0 -5 15
        }
      }
    }
  }
  JOINT pelvis_spine1
  {
    OFFSET 0 6.468898 -3.129235
    CHANNELS 3 Zrotation Xrotation Yrotation
    JOINT spine1
    {
      OFFSET 0 23.15396 4.99043
      CHANNELS 3 Zrotation Xrotation Yrotation
      JOINT spine2
      {
        OFFSET 0 20.79997 -5.064912
        CHANNELS 3 Zrotation Xrotation Yrotation
        JOINT neck
        {
          OFFSET 0 14.38658 9.616178
          CHANNELS 3 Zrotation Xrotation Yrotation
          End Site
          {
            OFFSET 0 20 0
          }
        }
      }
      JOINT right_manubrium
      {
        OFFSET -5.722621 16.35077 3.967754
        CHANNELS 3 Zrotation Xrotation Yrotation
        JOINT right_clavicle
        {
          OFFSET -13.16364 1.694482 -4.693211
          CHANNELS 3 Zrotation Xrotation Yrotation
          JOINT right_humerus
          {
            OFFSET -28.5034 -0.3100689 -2.792744
            CHANNELS 3 Zrotation Xrotation Yrotation
            JOINT right_radius
            {
              OFFSET -25.15693 0.02248979 -1.271978
              CHANNELS 3 Zrotation Xrotation Yrotation
              End Site
              {
                OFFSET -15 0 0
              }
            }
          }
        }
      }
      JOINT left_manubrium
      {
        OFFSET 5.722621 16.35077 3.967754
        CHANNELS 3 Zrotation Xrotation Yrotation
        JOINT left_clavicle
        {
          OFFSET 13.16364 1.694482 -4.693211
          CHANNELS 3 Zrotation Xrotation Yrotation
          JOINT left_humerus
          {
            OFFSET 29.39168 -1.063119 -2.237045
            CHANNELS 3 Zrotation Xrotation Yrotation
            JOINT left_radius
            {
              OFFSET 24.59957 -0.9528479 0.9047498
              CHANNELS 3 Zrotation Xrotation Yrotation
              End Site
              {
                OFFSET 15 -0 -0
              }
            }
          }
        }
      }
    }
  }
}
MOTION
Frames: 23
Frame Time: 0.0416666666667
32.43661 101.4181 283.6919 1.964 -8.443591 -0.3600163 0.3774269 15.56874 6.181141 -0 41.27074 -0 5.610899 -9.13911 -6.046721 -3.041038 -19.43277 -7.557144 -0 26.0621 -0 -7.60159 -8.924847 16.53364 -1.629013 -0.6929583 8.913295 -1.598613 10.17666 -2.731049 2.657002 21.18412 4.914273 3.041322 -15.99442 6.471605 0.05564268 -21.09947 10.64646 83.75644 18.43492 -7.438315 -0 0 27.19189 -24.34746 10.26519 13.52315 4.617835 -12.68633 -2.34929 -94.41655 22.05944 27.38296 0 0 -7.321995 -0.9285552 2.424346 17.73464
33.65717 102.1697 290.7909 2.68289 -8.804684 0.8413159 0.3018428 12.98432 5.661924 -0 49.37696 -0 5.043676 -6.951575 -6.184648 -4.78321 -15.20423 -8.642957 -0 26.68528 -0 -7.278254 -10.51425 16.08826 -2.242662 -0.7429773 8.127585 -1.628654 10.05734 -2.989458 2.548067 21.41924 5.025692 2.804473 -15.94597 6.696859 0.5593132 -20.1953 10.53758 84.66718 18.65802 -8.771812 -0 0 24.63518 -23.78009 10.37884 12.66865 4.359723 -13.04306 -2.564961 -93.19958 22.66165 25.4749 0 0 -7.921324 -0.7487984 2.626872 17.40726
34.68005 103.5194 297.4764 2.730179 -9.782136 1.930815 0.1989576 7.410864 4.851955 -0 55.35367 -0 4.65139 -7.026388 -7.138783 -5.569814 -9.777274 -9.235012 -0 26.32997 -0 -7.009144 -12.07543 15.83254 -2.332333 -0.09259707 6.986444 -1.373915 10.12243 -3.389065 2.286773 21.81359 5.284458 2.470163 -15.85481 7.00792 1.167101 -19.26477 10.57095 85.78079 19.07104 -10.30831 -0 0 22.00848 -23.04138 10.55568 11.81658 4.085241 -13.8428 -2.926222 -91.48133 23.32463 22.61238 0 0 -9.170436 -0.3817731 2.946402 16.82087
35.69684 105.0434 303.721 2.516258 -10.55144 2.882206 0.38956 0.4562 4.042752 -0 57.2828 -0 4.348627 -7.641713 -7.888473 -5.729514 -4.12288 -9.479726 -0 24.7892 -0 -6.938215 -13.34787 15.50168 -2.13242 0.5406725 5.540413 -1.047593 10.12555 -4.073974 2.044891 22.33398 5.593041 2.148416 -15.65016 7.402454 1.363602 -18.40141 10.46441 87.01247 19.51172 -11.90996 -0 0 19.86539 -22.28427 10.71169 11.14614 3.888023 -14.65133 -3.339908 -89.66331 23.92209 19.23913 0 0 -10.87247 0.09840722 3.36 16.06968
36.66561 106.2886 309.6615 2.358803 -10.18524 3.907586 0.7487265 -5.237469 3.078004 -0 55.30295 -0 4.31198 -7.325073 -8.554462 -5.724244 0.7270889 -9.727466 -0 22.30308 -0 -6.998523 -14.49879 14.99729 -2.010977 0.4905284 4.160565 -0.7091571 9.869895 -5.019569 1.879557 22.77131 5.906848 1.885389 -15.3628 7.843861 1.021325 -17.43631 10.02934 88.31104 19.86762 -13.72941 -0 0 18.11739 -21.54666 10.80112 10.60241 4.00095 -15.41535 -3.728989 -87.72865 24.44885 15.57374 0 0 -13.02554 0.6735148 3.886448 15.1194
37.51153 106.7288 314.979 2.514752 -9.886627 5.682564 0.5899657 -11.21293 2.988516 -0 49.27493 -0 3.944893 -7.081561 -8.91989 -5.744328 5.117722 -10.06441 -0 19.64454 -0 -7.095037 -15.82664 14.3077 -2.192608 0.794974 3.056187 -0.3397783 9.455112 -6.077897 2.020128 23.13895 5.981172 1.804051 -15.02832 8.206163 0.2999092 -16.43603 9.37119 89.38522 20.12696 -15.53843 -0 0 16.53094 -20.82534 10.7984 10.04819 4.415131 -16.62023 -4.067994 -85.50006 24.89543 11.36809 0 0 -15.75209 1.371208 4.509399 13.92896
38.33309 106.3974 320.6763 2.906032 -9.254434 7.571527 -0.04863316 -15.9498 3.188739 -0 41.02675 -0 3.396841 -6.968869 -9.410309 -5.793766 9.072053 -10.37316 -0 17.72203 -0 -7.114898 -17.35267 13.52595 -2.689977 0.8325211 2.083514 0.09551783 8.901066 -7.266318 2.269926 23.24705 5.921646 1.794687 -14.92273 8.472033 -0.4799285 -15.28331 8.562519 90.24738 20.28828 -17.50731 -0 0 14.76854 -20.09456 10.72588 9.378483 4.96942 -17.77016 -4.338682 -83.30586 25.19435 7.236127 0 0 -18.70884 2.151215 5.170985 12.59137
39.26144 105.3446 326.6748 3.463705 -8.757339 9.096407 -1.016801 -20.14124 3.173314 -0 31.83408 -0 2.63741 -7.541163 -10.44067 -6.036791 12.83362 -10.44209 -0 16.9222 -0 -7.112308 -18.98029 12.73557 -3.250145 0.8450261 1.487181 0.4389316 8.278985 -8.086781 2.560226 23.25973 5.767717 1.821086 -15.02292 8.64303 -1.205265 -14.48473 7.998176 90.64126 20.49865 -19.0524 -0 0 13.01953 -19.42474 10.64002 8.700114 5.495914 -18.7447 -4.501273 -81.41638 25.35164 3.561209 0 0 -21.62706 2.960524 5.8139 11.20159
39.83772 104.0699 332.7236 3.716946 -8.715777 9.852981 -1.723829 -23.98472 2.549044 -0 25.02999 -0 1.834544 -8.645175 -11.1867 -5.939267 16.27205 -10.29483 -0 17.50309 -0 -7.193691 -20.32324 12.16592 -3.635689 1.278423 1.344126 0.9171882 8.026348 -8.372591 2.679834 23.18003 5.622245 1.768059 -15.33831 8.67223 -1.374518 -13.36738 7.632272 91.2439 20.63722 -20.76835 -0 0 10.51651 -18.48052 10.52864 7.596061 5.979244 -19.80351 -4.31219 -79.76474 25.33641 0.4195905 0 0 -24.31693 3.840083 6.428005 9.810993
40.39361 102.859 338.8047 3.715781 -8.234172 10.20054 -1.678473 -25.95336 2.193839 -0 20.26949 -0 0.9146482 -10.1223 -11.71938 -5.919257 18.81502 -9.784114 -0 19.52668 -0 -7.474777 -20.84838 11.81693 -3.620137 1.711134 1.266615 1.3013 7.743554 -8.299677 2.653551 23.19654 5.437705 1.659448 -15.72006 8.521385 -1.188027 -12.70387 7.660566 91.60967 20.87711 -21.79509 -0 0 8.07006 -17.42219 10.47146 6.43302 6.239708 -20.7745 -4.009983 -78.63638 25.27238 -1.875781 0 0 -26.38273 4.680415 6.979259 8.562927
40.90663 101.7672 345.2911 3.334397 -7.795847 10.84655 -0.7423201 -25.77371 2.420836 -0 19.75908 -0 0.2807474 -10.50151 -12.35308 -4.802877 20.64024 -9.789114 -0 21.9305 -0 -8.120239 -20.42041 11.47429 -3.130455 1.363322 0.9567366 1.453998 7.152313 -8.142773 2.721195 23.01755 5.3592 1.596606 -16.39249 8.581184 -1.085849 -11.92462 7.775665 92.12565 21.08375 -22.46173 -0 0 5.951392 -16.33552 10.45656 5.396268 6.18843 -21.27121 -3.731267 -78.25975 25.31626 -2.93617 0 0 -27.39587 5.364679 7.451029 7.60686
41.26959 101.2225 352.3979 2.927748 -7.786395 11.57032 1.279046 -23.75074 3.468847 -0 21.73342 -0 0.007742795 -10.15082 -12.55993 -3.748225 21.6346 -9.826987 -0 27.09106 -0 -8.944125 -18.37446 11.83005 -2.513377 0.6796848 0.7177384 1.50451 7.039898 -7.844587 2.784082 23.29126 5.132543 1.573508 -16.76501 8.428326 -1.016565 -11.42614 7.759804 92.62778 21.26132 -22.52036 -0 0 4.51757 -15.32575 10.46247 4.610857 5.986667 -20.93966 -3.272034 -78.68121 25.57192 -2.97673 0 0 -27.37675 5.800569 7.861115 7.007992
41.68161 101.3044 359.7481 2.171692 -8.150775 11.20423 3.041276 -20.48247 4.171261 -0 23.60455 -0 -0.3253399 -10.40424 -12.70777 -3.159666 21.21844 -9.512184 -0 34.86305 -0 -9.680444 -15.24495 12.98641 -1.692719 0.02670909 0.6359907 1.638148 6.937752 -7.647593 2.904623 23.50427 4.796168 1.598844 -17.18248 8.159337 -1.014881 -11.41373 7.72348 92.60893 21.49163 -21.8704 -0 0 3.995468 -14.5566 10.44373 4.129453 5.714192 -19.92166 -2.838459 -79.80798 25.98127 -1.65658 0 0 -26.09088 5.961058 8.205787 6.85228
42.11743 102.1899 367.4396 1.896762 -9.71907 10.36498 4.498635 -15.67445 4.807155 -0 25.55252 -0 -0.8059502 -11.3539 -12.48777 -2.249889 18.11062 -9.318041 -0 43.72346 -0 -9.436722 -13.56194 15.14266 -1.204912 0.2235711 1.037295 1.8151 7.520667 -7.300359 2.916987 24.13288 4.627189 1.620207 -17.43088 7.999027 -0.7238674 -11.82845 7.691795 92.06202 21.74618 -20.65318 -0 0 4.161686 -14.08565 10.38668 3.938222 5.058334 -18.7254 -2.587255 -81.458 26.45416 0.5699493 0 0 -23.69694 5.818188 8.493814 7.100674
42.43629 103.0737 373.9217 1.57852 -11.16489 9.848785 5.457918 -10.61911 4.984318 -0 25.10988 -0 -1.348418 -12.8046 -11.91311 -2.451972 13.37028 -8.547979 -0 50.86187 -0 -9.240993 -11.92131 17.23784 -0.9065265 1.093741 1.499251 1.994953 7.947061 -6.952524 3.0758 24.72704 4.379701 1.741695 -17.54903 7.835811 -0.5128862 -13.29307 7.934959 90.63338 22.10526 -18.28722 -0 0 5.288785 -14.09392 10.2553 4.176633 4.357687 -17.90621 -2.685778 -83.18432 26.89208 2.936143 0 0 -20.63163 5.421357 8.726579 7.649508
42.87295 104.518 380.4913 1.980166 -11.86658 9.191188 5.409744 -4.570587 4.711639 -0 23.17668 -0 -1.687066 -14.00384 -11.18813 -2.81683 7.702191 -7.743328 -0 56.94276 -0 -9.099437 -10.32795 19.3707 -1.195122 1.646476 2.576421 1.83162 8.349929 -6.100876 3.310184 25.18581 3.939355 1.921852 -17.6828 7.454262 -0.09040417 -14.17973 8.408927 89.50989 22.19958 -16.10336 -0 0 6.671925 -14.31256 10.06679 4.621705 3.622681 -17.40948 -2.63984 -85.1162 27.15728 5.558513 0 0 -17.30552 4.881499 8.889056 8.307472
43.24901 105.959 386.0401 2.79205 -12.47423 9.024802 4.74482 1.207951 4.200162 -0 20.28363 -0 -1.820064 -14.79855 -10.26339 -3.194145 0.6277307 -7.364969 -0 58.3214 -0 -8.786576 -9.290308 20.57078 -1.754164 2.564701 3.536745 1.661182 8.537824 -5.199904 3.408038 25.23721 3.820186 2.023264 -18.06687 7.374707 0.2482678 -14.79579 8.768592 88.70057 22.04739 -14.01418 -0 0 8.412763 -14.80517 9.788394 5.343852 3.296112 -16.99057 -2.703257 -87.07295 27.26514 8.392766 0 0 -13.96012 4.262517 9.009861 9.019357
43.6072 106.9214 391.4578 3.088216 -12.21947 8.326371 4.235886 6.185679 3.363369 -0 16.90356 -0 -1.935614 -15.52249 -9.017255 -3.274326 -6.026622 -7.178679 -0 53.36338 -0 -8.36255 -9.402219 21.13754 -2.122671 3.058881 4.314591 1.15785 8.327175 -4.202226 3.434289 25.38413 3.72779 2.09538 -18.25307 7.254442 -0.3211016 -16.12617 9.021652 87.07754 21.81633 -11.22625 -0 0 10.96956 -15.88039 9.396605 6.542814 3.560607 -16.40883 -2.49712 -88.96978 27.13199 11.4854 0 0 -10.83363 3.661197 9.097971 9.652357
44.01723 106.9713 396.7332 2.818133 -11.58248 6.874424 3.97066 10.41424 2.094802 -0 13.77797 -0 -2.163397 -16.39942 -7.498144 -2.48268 -11.81908 -7.134732 -0 44.30407 -0 -7.895322 -9.706617 21.67811 -2.047887 3.205234 4.898735 0.8700289 7.789824 -3.239545 3.060994 25.38075 3.918058 1.958116 -18.41027 7.138351 -0.7175943 -17.99536 9.188724 85.44793 21.48104 -8.010298 -0 0 14.41408 -17.3695 8.98871 8.493492 3.988176 -15.66795 -2.184608 -90.85475 26.77088 14.66345 0 0 -7.950603 3.1114 9.160103 10.18517
44.48946 106.3128 402.1866 2.185363 -10.77161 6.06807 4.199409 14.13851 0.690509 -0 11.47865 -0 -2.478833 -17.31264 -5.945929 -0.8358346 -15.92131 -6.483884 -0 33.5556 -0 -7.849703 -9.6009 22.82153 -1.666571 3.058524 4.936104 0.6380683 7.675324 -2.67742 2.709448 25.14366 4.220916 1.862759 -18.7324 7.161391 -1.421801 -18.85648 9.050031 84.74332 21.07288 -5.864591 -0 0 17.15061 -18.76309 8.499839 10.38487 4.513096 -14.99424 -1.818642 -92.48497 26.25669 17.65468 0 0 -5.340984 2.69691 9.21726 10.62702
45.10785 105.2031 407.8306 1.549043 -10.15479 5.685994 4.455091 17.5285 -0.8012934 -0 10.42329 -0 -2.843547 -17.92652 -4.450418 0.5312872 -19.01938 -5.777234 -0 23.89052 -0 -7.857666 -9.483361 23.56502 -1.183568 2.900452 4.807399 0.3847602 7.585883 -2.312956 2.444406 24.96151 4.559311 1.870532 -19.22001 7.267373 -2.296062 -19.88728 8.821368 84.15564 20.66144 -3.875589 -0 0 19.49636 -20.01819 7.964318 11.87094 4.972494 -14.35723 -1.467957 -93.82869 25.65132 20.40733 0 0 -2.906619 2.430539 9.262314 11.00698
45.90465 104.071 413.4276 1.143516 -9.611396 5.111415 4.595796 20.47717 -2.534262 -0 10.86217 -0 -3.29918 -17.70866 -3.186132 0.3904336 -20.88087 -6.009108 -0 16.61307 -0 -7.789941 -9.822368 23.08008 -0.8425288 2.911626 4.858038 0.07946888 7.478004 -1.94485 2.314482 24.8616 4.891523 2.032655 -19.84285 7.431238 -3.046932 -21.08453 8.590356 83.78169 20.23223 -2.171038 -0 0 21.36713 -21.13952 7.399743 13.00452 5.16739 -14.03792 -1.137101 -94.83741 25.03013 22.61992 0 0 -0.8038791 2.346444 9.296558 11.29024
46.90367 103.1882 419.0736 0.6525188 -9.09755 4.744445 4.130066 22.57191 -3.816523 -0 12.80288 -0 -3.708801 -15.91133 -1.938855 -0.6624513 -21.12114 -6.486627 -0 12.60031 -0 -7.787134 -9.961634 22.43997 -0.5519825 2.851752 4.784462 -0.03047961 7.45212 -1.911286 2.34193 24.71016 5.202014 2.354041 -20.46558 7.643576 -3.653194 -22.08267 8.283932 83.70056 19.80911 -1.129422 -0 0 22.51727 -22.13429 6.827959 13.72548 5.15046 -13.90918 -1.074233 -95.65319 24.40537 24.2915 -0 0 0.9103287 2.326457 9.339947 11.45293
